<svg xmlns="http://www.w3.org/2000/svg" version="1.1" viewBox="-5.0 -10.0 110.0 135.0">
 <path d="m94.719 65.047-11.562-6.6719 11.562-6.6875c0.60938-0.34375 0.98438-0.98438 0.98438-1.6875s-0.375-1.3438-0.98438-1.6875l-11.562-6.6875 11.5-6.6406c0.32812-0.17188 0.59375-0.42188 0.78125-0.75 0.54688-0.9375 0.21875-2.125-0.71875-2.6719l-43.75-25.25c-0.59375-0.35938-1.3438-0.35938-1.9375 0l-43.75 25.25c-0.60938 0.35938-0.98438 1-0.98438 1.7031s0.375 1.3281 0.98438 1.6875l11.562 6.6719-11.562 6.6875c-0.60938 0.34375-0.98438 0.98438-0.98438 1.6875s0.375 1.3438 0.98438 1.6875l11.562 6.6875-11.562 6.6719c-0.60938 0.35938-0.98438 1-0.98438 1.6875s0.375 1.3438 0.98438 1.7031l43.75 25.25c0.29688 0.17188 0.625 0.26562 0.96875 0.26562s0.67188-0.09375 0.96875-0.26562l43.75-25.25c0.60938-0.35938 0.98438-1 0.98438-1.7031s-0.375-1.3281-0.98438-1.6875zm-84.562-15.047 10.594-6.1094 28.281 16.312c0.29688 0.17188 0.625 0.26562 0.96875 0.26562s0.67188-0.09375 0.96875-0.26562l28.281-16.312 10.594 6.1094-39.844 23z"/>
</svg>