<svg xmlns="http://www.w3.org/2000/svg" version="1.1" viewBox="-5.0 -10.0 110.0 135.0">
 <path d="m94.719 65.047-11.578-6.6719 11.578-6.6875c0.60938-0.34375 0.96875-1 0.96875-1.6875s-0.375-1.3438-0.96875-1.6875l-11.578-6.6719 11.516-6.6406c0.3125-0.17188 0.59375-0.42188 0.78125-0.75 0.54688-0.9375 0.21875-2.125-0.71875-2.6719l-43.75-25.266c-0.60938-0.34375-1.3438-0.34375-1.9531 0l-43.734 25.25c-0.60938 0.34375-0.96875 1-0.96875 1.6875s0.375 1.3438 0.96875 1.6875l11.578 6.6875-11.578 6.6719c-0.60938 0.34375-0.96875 1-0.96875 1.6875s0.375 1.3438 0.96875 1.6875l11.578 6.6875-11.578 6.6719c-0.60938 0.34375-0.96875 1-0.96875 1.6875s0.375 1.3438 0.96875 1.6875l43.75 25.266c0.29688 0.17188 0.64062 0.26562 0.96875 0.26562s0.67188-0.09375 0.96875-0.26562l43.75-25.266c0.60938-0.34375 0.96875-1 0.96875-1.6875s-0.375-1.3438-0.96875-1.6875zm-44.719-54.797 39.844 23-39.844 23-39.844-22.984 39.844-23zm-29.25 33.641 28.266 16.328c0.29688 0.17188 0.64062 0.26562 0.96875 0.26562s0.67188-0.09375 0.96875-0.26562l28.266-16.328 10.594 6.1094-39.844 23-39.844-23 10.594-6.1094zm29.25 45.859-39.844-23 10.594-6.1094 28.266 16.328c0.29688 0.17188 0.64062 0.26562 0.96875 0.26562s0.67188-0.09375 0.96875-0.26562l28.266-16.328 10.594 6.1094-39.844 23z"/>
</svg>