<svg xmlns="http://www.w3.org/2000/svg" data-name="Layer 1" viewBox="0 0 100 100" x="0px" y="0px"><defs><style>.cls-1{fill-rule:evenodd;}</style></defs><path class="cls-1" d="M77.43,16.5a1.26,1.26,0,0,1,.63,1.9A109.5,109.5,0,0,1,52.53,49.3,121.49,121.49,0,0,1,27.07,65.57a106.41,106.41,0,0,0,29.07-12A111.6,111.6,0,0,0,88.1,24a1.26,1.26,0,0,1,1.69-.41l4.83,2.76c-.86-3.21-2.39-9-4.45-17.41-2.38.71-8.11,2.39-17.37,4.91l4.63,2.66Zm9.29,31.86V94.59H77.49V56.52a113.54,113.54,0,0,0,9.23-8.16Zm-20.24,16V94.59H57.25V69.68c3.1-1.63,6.24-3.45,9.23-5.34ZM46.23,74.87c-3,1.27-6.08,2.41-9.22,3.45V94.59h9.22V74.87ZM26,81.44c-3.07.73-6.11,1.32-9.23,1.8V94.59H26V81.44ZM18.2,39.06a14.3,14.3,0,1,1,20.23,0,14.3,14.3,0,0,1-20.23,0Zm10.11,6.71A16.83,16.83,0,1,1,45.15,28.94,16.82,16.82,0,0,1,28.31,45.77ZM30.38,6.64a7,7,0,0,0,2.79,1.69c2,.47,4.57-1,5.5-.54s1.28,3.33,2.88,4.62,4.49,1,5.13,1.81-.25,3.55.66,5.41,3.64,2.85,3.89,3.91-1.75,3.25-1.75,5.4,2,4.33,1.75,5.4-3,2-3.89,3.91,0,4.61-.66,5.41a4.12,4.12,0,0,1-2.06.7c-2.95.55-3.63,1.1-4.81,3.85-1,2.2-1,2.23-3.35,1.64-2.93-.74-3.76-.54-6.08,1.39-2,1.64-2.16,1.64-4.13,0-2.33-1.93-3.16-2.13-6.09-1.39-2.34.59-2.4.57-3.34-1.64C15.63,45.46,15,44.91,12,44.36c-2.33-.44-2.37-.49-2.29-2.86.09-3-.29-3.78-2.7-5.56-2-1.46-2-1.56-.9-3.78,1.38-2.78,1.38-3.66,0-6.44C5,23.5,5,23.4,7,21.94c2.41-1.78,2.79-2.56,2.7-5.56C9.63,14,9.67,14,12,13.52,15,13,15.63,12.43,16.82,9.67c.94-2.2,1-2.23,3.34-1.64,2.93.74,3.76.54,6.09-1.39,2-1.64,2.15-1.64,4.13,0Zm5,15.91a1.16,1.16,0,0,1,.89,1.95L26.55,35a1.15,1.15,0,0,1-1.7,0l-4.52-5A1.15,1.15,0,1,1,22,28.4l2.75,3a1.26,1.26,0,0,0,1.86,0h0l7.93-8.54a1.15,1.15,0,0,1,.81-.37ZM32.74,21.2a3.68,3.68,0,0,1,5.39,5L28.4,36.68a3.7,3.7,0,0,1-5.41,0l-.15-.18-4.38-4.85a3.67,3.67,0,0,1,5.45-4.93l1.83,2Z"/></svg>