<svg xmlns="http://www.w3.org/2000/svg" data-name="Layer 1" viewBox="0 0 100 100" x="0px" y="0px"><defs><style>.cls-1{fill-rule:evenodd;}</style></defs><path class="cls-1" d="M87,27.9a107.7,107.7,0,0,1-30.2,27.63A105.65,105.65,0,0,1,17.34,69.42a1.36,1.36,0,0,1-.72-2.62C41,57.5,60.47,42.33,73.26,20.06l-5.88-3.37a1.36,1.36,0,0,1,.35-2.51C81.5,10.47,88,8.47,88,8.47a1.35,1.35,0,0,1,1.73,1C93,22.86,94.94,29.77,95,29.79a1.37,1.37,0,0,1-2,1.55h0L87,27.9ZM75.59,18.25a1.37,1.37,0,0,1,.66,2A103.63,103.63,0,0,1,52.14,49.48,114.39,114.39,0,0,1,29.62,64.09a99.55,99.55,0,0,0,25.73-10.9A105.19,105.19,0,0,0,85.44,25.38a1.36,1.36,0,0,1,1.82-.45l4.2,2.41c-.83-3.08-2.21-8.37-4-15.86-2.31.69-7.54,2.22-15.82,4.48l4,2.29ZM84.1,48.87a110.37,110.37,0,0,1-8.36,7.37V91.89H84.1v-43ZM73.59,54.46A1.38,1.38,0,0,0,73,55.58V93.25a1.37,1.37,0,0,0,.4,1l0,0,0,0h0l0,0,0,0,0,0,0,0,0,0,0,0,0,0,0,0h0l0,0h0l0,0h0l0,0H85.46a1.36,1.36,0,0,0,1.37-1.36V45.56a1.36,1.36,0,0,0-2.44-.84q-2.42,2.52-5.12,5c-1.78,1.61-3.68,3.2-5.68,4.77ZM65,63.83c-2.7,1.71-5.57,3.36-8.36,4.84V91.89H65V63.83ZM54.77,66.58a1.36,1.36,0,0,0-.85,1.26V93.25a1.32,1.32,0,0,0,.24.76,1.34,1.34,0,0,0,1.13.6H66.91l0,0h0l0,0h0l0,0h0l0,0,0,0h0l0,0,0,0,0,0,0,0h0l0,0h0l0,0,0,0,0,0a1.34,1.34,0,0,0,.4-1V61.34a1.37,1.37,0,0,0-2.22-1.07Q63,62,60.24,63.56t-5.47,3Zm-8.85,7.13c-2.77,1.15-5.51,2.18-8.36,3.13v15h8.36V73.71Zm-10,.81c1.8-.58,3.61-1.22,5.4-1.9s3.61-1.41,5.33-2.16a1.37,1.37,0,0,1,2,1.2V93.25a1.36,1.36,0,0,1-1.37,1.36H36.19a1.36,1.36,0,0,1-1.36-1.37V75.85a1.36,1.36,0,0,1,1.06-1.33Zm-9.06,5.36c-2.79.65-5.53,1.18-8.36,1.62V91.89h8.36v-12ZM17,79q2.69-.39,5.39-.92c1.83-.36,3.62-.76,5.39-1.2a1.36,1.36,0,0,1,1.79,1.3v15.1a1.37,1.37,0,0,1-1.37,1.36H17.1a1.36,1.36,0,0,1-1.36-1.36V80.33A1.37,1.37,0,0,1,17,79Zm2.78-39.41a13.32,13.32,0,1,0,0-18.84,13.33,13.33,0,0,0,0,18.84Zm9.42,6.63a16,16,0,1,0-16-16,16,16,0,0,0,16.05,16ZM31,9.24c-1.79-1.49-1.88-1.49-3.67,0-2.24,1.86-3.07,2-5.89,1.34a4.06,4.06,0,0,0-2-.23c-.78.38-1.16,3.1-2.7,4.34s-4.27,1-4.81,1.67.28,3.29-.6,5.07S8,24.18,7.74,25.09s1.65,3,1.65,5.05-1.86,4.14-1.65,5,2.77,1.87,3.65,3.66.07,4.4.6,5.07,3.27.44,4.81,1.68,1.92,3.95,2.7,4.33,3.21-1,5.14-.51,3.51,2.75,4.55,2.75,2.58-2.29,4.54-2.75,4.37.89,5.15.51,1.15-3.1,2.69-4.34,4.27-1,4.81-1.67-.27-3.29.6-5.07,3.44-2.75,3.65-3.66-1.64-3-1.64-5,1.86-4.14,1.64-5.05S47.86,23.22,47,21.43s-.06-4.4-.6-5.07-3.27-.44-4.81-1.67-1.92-4-2.69-4.34-3.22,1-5.15.51A6.89,6.89,0,0,1,31,9.24ZM29.19,5.39c-2.38,0-4,2.54-5.17,2.82s-3.66-1.31-5.72-.3S16,11.86,15.1,12.57s-3.8.32-5.23,2.09S9.46,19.2,9,20.24s-3.33,2-3.86,4.23,1.57,4.35,1.57,5.67-2.1,3.41-1.57,5.67S8.45,39,9,40s-.5,3.81.92,5.58S14.22,47,15.1,47.71s1.14,3.65,3.2,4.66,4.54-.58,5.72-.3,2.79,2.83,5.17,2.83,4-2.55,5.16-2.83,3.66,1.32,5.72.3,2.33-3.95,3.2-4.66,3.81-.31,5.23-2.09.41-4.54.92-5.58,3.34-2,3.87-4.23-1.58-4.35-1.58-5.67,2.1-3.41,1.58-5.67-3.37-3.2-3.87-4.23.5-3.81-.92-5.58-4.35-1.39-5.23-2.09-1.14-3.65-3.2-4.66-4.54.58-5.72.3-2.79-2.82-5.16-2.82Zm6.68,18.89a.9.9,0,0,0-.64.3l-7.49,8.05h0a1.36,1.36,0,0,1-2,0l-2.59-2.86a.92.92,0,0,0-1.6.57.91.91,0,0,0,.23.66l4.16,4.6a1,1,0,0,0,.82.42.92.92,0,0,0,.64-.3l9.18-9.87a.93.93,0,0,0-.71-1.55Zm-2.63-1.56-6.48,7-1.6-1.76a3.63,3.63,0,1,0-5.39,4.87l4.13,4.57.15.17a3.64,3.64,0,0,0,5.34,0l9.18-9.87a3.64,3.64,0,0,0-5.33-5Z"/></svg>